# Blender 4.1.1
# www.blender.org
mtllib SpaceShip.mtl
o Cube
v 0.317223 4.034596 -8.941804
v 3.003060 1.735694 -5.909511
v 3.003060 4.034596 2.905220
v 3.003060 1.735694 9.149899
v -0.420574 4.034596 -8.941804
v -3.106411 1.735694 -5.909511
v -3.106411 4.034596 2.905220
v -3.106411 1.735694 9.149899
v 3.003060 3.154642 -5.909511
v -3.106411 3.154642 5.937513
v 3.003060 3.154642 5.937513
v -3.106411 3.154642 -5.909511
v 2.667510 2.121194 0.199960
v 2.667510 2.893841 0.199960
v 2.667510 2.121194 -5.909511
v 2.667510 2.893841 -5.909511
v 8.776980 2.121194 0.199960
v 8.776980 2.893841 0.199960
v 8.776980 2.121194 -5.909511
v 8.776980 2.893841 -5.909511
v -8.917724 2.092923 0.199960
v -8.917724 2.915950 0.199960
v -8.917724 2.092923 -5.909511
v -8.917724 2.915950 -5.909511
v -2.808253 2.092923 0.199960
v -2.808253 2.915950 0.199960
v -2.808253 2.092923 -5.909511
v -2.808253 2.915950 -5.909511
vn -0.0000 1.0000 -0.0000
vn -0.0000 0.9604 0.2787
vn -1.0000 -0.0000 -0.0000
vn -0.0000 -1.0000 -0.0000
vn 1.0000 -0.0000 -0.0000
vn -0.0000 -0.9604 -0.2787
vn -0.0000 -0.0000 -1.0000
vn -0.0000 0.9147 0.4040
vn -0.0000 -0.0000 1.0000
vn -0.4013 0.9114 -0.0910
vn 0.4013 0.9114 -0.0910
vt 0.875000 0.500000
vt 0.625000 0.750000
vt 0.625000 0.500000
vt 0.473774 1.000000
vt 0.473774 0.750000
vt 0.625000 0.000000
vt 0.473774 0.250000
vt 0.473774 0.000000
vt 0.375000 0.500000
vt 0.125000 0.750000
vt 0.125000 0.500000
vt 0.473774 0.500000
vt 0.625000 0.250000
vt 0.375000 0.250000
vt 0.375000 0.750000
vt 0.375000 0.000000
vt 0.375000 1.000000
vt 0.875000 0.750000
vt 0.625000 1.000000
s 0
usemtl Material
f 2/9/4 8/10/4 6/11/4
f 5/13/6 9/12/6 12/7/6
f 12/7/7 2/9/7 6/14/7
f 2/9/5 11/5/5 4/15/5
f 10/8/3 6/14/3 8/16/3
f 14/6/3 15/14/3 13/16/3
f 16/13/7 19/9/7 15/14/7
f 20/3/5 17/15/5 19/9/5
f 18/2/9 13/17/9 17/15/9
f 19/9/4 13/10/4 15/11/4
f 16/1/1 18/2/1 20/3/1
f 22/6/3 23/14/3 21/16/3
f 24/13/7 27/9/7 23/14/7
f 28/3/5 25/15/5 27/9/5
f 26/2/9 21/17/9 25/15/9
f 27/9/4 21/10/4 23/11/4
f 24/1/1 26/2/1 28/3/1
f 2/9/4 4/15/4 8/10/4
f 5/13/6 1/3/6 9/12/6
f 12/7/7 9/12/7 2/9/7
f 2/9/5 9/12/5 11/5/5
f 10/8/3 12/7/3 6/14/3
f 14/6/3 16/13/3 15/14/3
f 16/13/7 20/3/7 19/9/7
f 20/3/5 18/2/5 17/15/5
f 18/2/9 14/19/9 13/17/9
f 19/9/4 17/15/4 13/10/4
f 16/1/1 14/18/1 18/2/1
f 22/6/3 24/13/3 23/14/3
f 24/13/7 28/3/7 27/9/7
f 28/3/5 26/2/5 25/15/5
f 26/2/9 22/19/9 21/17/9
f 27/9/4 25/15/4 21/10/4
f 24/1/1 22/18/1 26/2/1
usemtl Material.002
f 5/1/1 3/2/1 1/3/1
f 3/2/2 10/4/2 11/5/2
f 7/6/3 12/7/3 10/8/3
f 9/12/5 3/2/5 11/5/5
f 11/5/8 8/17/8 4/15/8
f 5/1/1 7/18/1 3/2/1
f 3/2/2 7/19/2 10/4/2
f 7/6/10 5/13/10 12/7/10
f 9/12/11 1/3/11 3/2/11
f 11/5/8 10/4/8 8/17/8
