# Blender 4.1.1
# www.blender.org
mtllib torpedo.mtl
o Cube
v 0.440591 0.460278 -9.767399
v 0.397150 -0.027683 -9.767399
v 2.924879 2.772549 9.409426
v 2.444952 -2.618332 9.409426
v -0.055954 0.461211 -9.767399
v -0.047372 -0.037264 -9.767399
v -2.560848 2.782865 9.409426
v -2.466038 -2.724177 9.409426
v 0.185957 -0.125270 -9.767399
v 0.111736 3.697236 9.409426
v 0.111736 -3.696456 9.409426
v 0.185957 0.543976 -9.767399
v 0.510773 0.205250 -9.767399
v -3.693456 -0.044940 9.409426
v 3.700236 -0.044940 9.409426
v -0.158473 0.205250 -9.767399
v 0.185957 0.205250 -9.767399
v 0.111736 -0.044940 9.409426
v -1.623691 -1.748106 -6.181587
v 2.164765 2.114707 -6.181587
v -1.690318 2.121956 -6.181588
v 1.827497 -1.673724 -6.181589
v 0.187835 -2.431373 -6.181587
v 0.187835 2.764529 -6.181587
v 2.709645 0.134722 -6.181587
v -2.486257 0.134722 -6.181588
v -2.970633 -3.261474 8.266109
v 3.503820 3.340056 8.266110
v 0.125255 -4.429174 8.266110
v 0.125255 4.450598 8.266109
v 4.435019 -0.043730 8.266110
v -3.084499 3.352444 8.266110
v 2.927430 -3.134356 8.266110
v -4.444754 -0.043730 8.266109
vn -0.2752 0.8043 0.5267
vn -0.0000 -0.0000 1.0000
vn -0.7977 0.3195 -0.5115
vn 0.3618 -0.7830 0.5061
vn 0.8195 0.2255 0.5269
vn -0.0000 -0.0000 -1.0000
vn -0.3032 -0.8039 0.5116
vn 0.2642 0.8039 0.5328
vn 0.7784 -0.3797 0.4999
vn -0.7801 -0.3574 -0.5135
vn -0.9017 -0.4131 -0.1273
vn 0.7843 -0.3826 -0.4884
vn 0.2691 0.8188 -0.5072
vn -0.3024 -0.8018 -0.5155
vn 0.8318 0.2289 -0.5056
vn 0.3622 -0.7839 -0.5043
vn -0.9216 0.3691 -0.1204
vn -0.2793 0.8164 -0.5054
vn -0.7924 0.3174 0.5210
vn -0.7806 -0.3576 0.5126
vn 0.8931 -0.4357 -0.1120
vn 0.3104 0.9443 -0.1089
vn -0.3499 -0.9277 -0.1298
vn 0.9582 0.2637 -0.1112
vn 0.4163 -0.9009 -0.1228
vn -0.3217 0.9403 -0.1111
vt 0.746336 0.735095
vt 0.875000 0.750000
vt 0.746337 0.750000
vt 0.498467 0.871337
vt 0.625000 1.000000
vt 0.498467 1.000000
vt 0.498467 0.203253
vt 0.625000 0.250000
vt 0.498467 0.250000
vt 0.375000 0.735095
vt 0.253663 0.750000
vt 0.253663 0.735095
vt 0.498467 0.735095
vt 0.625000 0.750000
vt 0.498467 0.750000
vt 0.498467 0.378663
vt 0.625000 0.500000
vt 0.498467 0.500000
vt 0.125000 0.750000
vt 0.125000 0.735095
vt 0.625000 0.735095
vt 0.375000 0.750000
vt 0.375000 0.871337
vt 0.375000 0.250000
vt 0.375000 0.378663
vt 0.375000 0.500000
vt 0.375000 0.203253
vt 0.375000 1.000000
vt 0.498467 0.014905
vt 0.375000 0.014905
vt 0.375000 0.546747
vt 0.746336 0.546747
vt 0.625000 0.546747
vt 0.125000 0.500000
vt 0.253663 0.546747
vt 0.125000 0.546747
vt 0.498467 0.546747
vt 0.253663 0.500000
vt 0.625000 0.014905
vt 0.875000 0.500000
vt 0.746337 0.500000
vt 0.625000 0.000000
vt 0.498467 0.000000
vt 0.375000 0.000000
vt 0.875000 0.546747
vt 0.875000 0.735095
vt 0.625000 0.871337
vt 0.625000 0.203253
vt 0.625000 0.378663
s 0
usemtl Material
f 30/1/1 7/2/1 10/3/1
f 33/10/4 11/11/4 29/12/4
f 31/13/5 3/14/5 15/15/5
f 29/12/7 8/19/7 27/20/7
f 30/1/8 3/14/8 28/21/8
f 33/10/9 15/15/9 4/22/9
f 34/29/11 19/27/11 27/30/11
f 32/39/17 26/7/17 34/29/17
f 7/42/19 34/29/19 14/43/19
f 14/43/20 27/30/20 8/44/20
f 22/31/21 31/13/21 33/10/21
f 20/33/22 30/1/22 28/21/22
f 19/36/23 29/12/23 27/20/23
f 20/33/24 31/13/24 25/37/24
f 23/35/25 33/10/25 29/12/25
f 21/45/26 30/1/26 24/32/26
f 30/1/1 32/46/1 7/2/1
f 33/10/4 4/22/4 11/11/4
f 31/13/5 28/21/5 3/14/5
f 29/12/7 11/11/7 8/19/7
f 30/1/8 10/3/8 3/14/8
f 33/10/9 31/13/9 15/15/9
f 34/29/11 26/7/11 19/27/11
f 32/39/17 21/48/17 26/7/17
f 7/42/19 32/39/19 34/29/19
f 14/43/20 34/29/20 27/30/20
f 22/31/21 25/37/21 31/13/21
f 20/33/22 24/32/22 30/1/22
f 19/36/23 23/35/23 29/12/23
f 20/33/24 28/21/24 31/13/24
f 23/35/25 22/31/25 33/10/25
f 21/45/26 32/46/26 30/1/26
usemtl Material.001
f 26/7/3 5/8/3 16/9/3
f 17/16/6 1/17/6 13/18/6
f 5/8/6 17/16/6 16/9/6
f 6/24/6 17/16/6 9/25/6
f 17/16/6 2/26/6 9/25/6
f 19/27/10 16/9/10 6/24/10
f 13/18/12 22/31/12 2/26/12
f 1/17/13 24/32/13 20/33/13
f 6/34/14 23/35/14 19/36/14
f 1/17/15 25/37/15 13/18/15
f 9/38/16 22/31/16 23/35/16
f 5/40/18 24/32/18 12/41/18
f 26/7/3 21/48/3 5/8/3
f 17/16/6 12/49/6 1/17/6
f 5/8/6 12/49/6 17/16/6
f 6/24/6 16/9/6 17/16/6
f 17/16/6 13/18/6 2/26/6
f 19/27/10 26/7/10 16/9/10
f 13/18/12 25/37/12 22/31/12
f 1/17/13 12/41/13 24/32/13
f 6/34/14 9/38/14 23/35/14
f 1/17/15 20/33/15 25/37/15
f 9/38/16 2/26/16 22/31/16
f 5/40/18 21/45/18 24/32/18
usemtl Material.002
f 18/4/2 7/5/2 14/6/2
f 3/14/2 18/4/2 15/15/2
f 4/22/2 18/4/2 11/23/2
f 18/4/2 8/28/2 11/23/2
f 18/4/2 10/47/2 7/5/2
f 3/14/2 10/47/2 18/4/2
f 4/22/2 15/15/2 18/4/2
f 18/4/2 14/6/2 8/28/2
